<svg width="48" height="48" viewBox="0 0 48 48" fill="none" xmlns="http://www.w3.org/2000/svg">
<g clip-path="url(#clip0_38927_256)">
<path d="M33.2986 36.9995C32.9801 36.6687 32.3923 36.5739 31.9602 36.9873C31.9572 36.9902 31.9541 36.9932 31.951 36.9962C31.5246 37.4155 31.6017 38.006 31.9226 38.3345C32.093 38.509 32.3389 38.6166 32.5965 38.6166C32.8238 38.6166 33.06 38.5328 33.2612 38.3376C33.6905 37.9212 33.6175 37.3301 33.2986 36.9995Z" fill="#FF3F3A"/>
<path d="M41.7862 18.9519C41.6062 18.4663 41.0671 18.2188 40.5816 18.3984C40.0961 18.5782 39.8483 19.1174 40.0282 19.603C40.8374 21.7877 41.2477 24.088 41.2477 26.4399C41.2477 37.294 32.4171 46.1245 21.563 46.1245C17.5353 46.1245 13.6636 44.9169 10.3659 42.632C9.94056 42.3371 9.35641 42.443 9.06156 42.8686C8.76663 43.2941 8.87256 43.8781 9.29819 44.173C12.9109 46.6762 17.152 47.9993 21.5631 47.9993C27.3219 47.9993 32.7358 45.7567 36.8079 41.6845C40.88 37.6125 43.1226 32.1985 43.1226 26.4398C43.1224 23.865 42.6727 21.3457 41.7862 18.9519Z" fill="#FF3F3A"/>
<path d="M28.8232 6.13401C26.4975 5.30245 24.055 4.88086 21.5634 4.88086C15.8046 4.88086 10.3906 7.12345 6.31852 11.1954C2.2465 15.2676 0.00390625 20.6816 0.00390625 26.4403C0.00390625 30.9061 1.35728 35.1906 3.91796 38.8308C4.1004 39.0903 4.39055 39.2289 4.68549 39.2289C4.87177 39.2289 5.05993 39.1735 5.2239 39.0581C5.64736 38.7602 5.74918 38.1755 5.45133 37.7521C3.11406 34.4294 1.87862 30.5179 1.87862 26.4402C1.87862 15.5861 10.7092 6.75557 21.5633 6.75557C23.8393 6.75557 26.0694 7.14032 28.1919 7.89923C28.6793 8.0736 29.2159 7.81973 29.3901 7.33223C29.5644 6.84482 29.3106 6.30839 28.8232 6.13401Z" fill="#FF3F3A"/>
<path d="M47.9246 7.77379C47.7795 7.42344 47.4378 7.19516 47.0586 7.19516H42.1332L42.6629 6.66548C43.0289 6.29948 43.0289 5.70585 42.6629 5.33976C42.2968 4.97376 41.7034 4.97376 41.3372 5.33976L40.8008 5.8762V0.937456C40.8008 0.558426 40.5723 0.21652 40.2221 0.0713954C39.8718 -0.0737293 39.4686 0.0065205 39.2006 0.274551L30.9372 8.53804C30.7614 8.71382 30.6626 8.95222 30.6626 9.20085V12.4526C27.9587 10.6839 24.8416 9.75538 21.5621 9.75538C12.3619 9.75538 4.87695 17.2404 4.87695 26.4405C4.87695 35.6406 12.3619 43.1256 21.5621 43.1256C24.6157 43.1256 27.6031 42.2928 30.2014 40.7175C30.6441 40.4491 30.7853 39.8726 30.517 39.4299C30.2487 38.9873 29.6722 38.8459 29.2295 39.1144C26.9243 40.5121 24.2729 41.2508 21.5621 41.2508C13.3956 41.2508 6.75167 34.607 6.75167 26.4404C6.75167 18.2739 13.3956 11.63 21.5621 11.63C24.8968 11.63 28.0419 12.7108 30.6626 14.7556V16.0142L28.9543 17.7224C26.9594 16.0283 24.3783 15.0044 21.5621 15.0044C15.2563 15.0044 10.1262 20.1345 10.1262 26.4403C10.1262 32.7461 15.2563 37.8762 21.5621 37.8762C27.8679 37.8762 32.998 32.7461 32.998 26.4403C32.998 23.6242 31.9742 21.043 30.28 19.048L31.9949 17.3331H33.242C35.2628 19.9229 36.3724 23.1446 36.3724 26.4403C36.3724 29.2038 35.6065 31.8992 34.1577 34.235C33.8848 34.6748 34.0203 35.2527 34.4604 35.5256C34.6142 35.621 34.7848 35.6665 34.9535 35.6665C35.2672 35.6665 35.5736 35.5091 35.751 35.2232C37.3841 32.5904 38.2472 29.5534 38.2472 26.4403C38.2472 23.2025 37.2961 20.0278 35.5426 17.3331H38.7949C39.0435 17.3331 39.2818 17.2343 39.4577 17.0585L47.7212 8.795C47.9895 8.52725 48.0697 8.12404 47.9246 7.77379ZM31.1234 26.4405C31.1234 31.7125 26.8343 36.0017 21.5623 36.0017C16.2902 36.0017 12.0011 31.7125 12.0011 26.4405C12.0011 21.1685 16.2902 16.8793 21.5623 16.8793C23.8615 16.8793 25.9735 17.6952 27.6246 19.0525L25.4897 21.1874C24.3941 20.3661 23.034 19.879 21.5624 19.879C17.9443 19.879 15.0008 22.8225 15.0008 26.4405C15.0008 30.0586 17.9444 33.0021 21.5624 33.0021C25.1804 33.0021 28.1239 30.0585 28.1239 26.4405C28.1239 24.9688 27.6368 23.6088 26.8154 22.513L28.9503 20.3782C30.3075 22.0293 31.1234 24.1413 31.1234 26.4405ZM20.8995 27.1034C21.0825 27.2865 21.3224 27.378 21.5623 27.378C21.8022 27.378 22.042 27.2865 22.2251 27.1034L25.4706 23.8579C25.9619 24.599 26.2491 25.4867 26.2491 26.4405C26.2491 29.0248 24.1466 31.1273 21.5623 31.1273C18.978 31.1273 16.8754 29.0248 16.8754 26.4405C16.8754 23.8562 18.978 21.7537 21.5623 21.7537C22.5162 21.7537 23.4038 22.0408 24.145 22.5322L20.8995 25.7777C20.5334 26.1437 20.5334 26.7372 20.8995 27.1034ZM32.5375 14.1396V9.58916L38.9261 3.20048V7.75091L32.5375 14.1396ZM38.4069 15.4586H33.8699L40.2586 9.06988H44.7955L38.4069 15.4586Z" fill="#FF3F3A"/>
<path d="M7.62444 40.3411C7.45016 40.1668 7.20838 40.0664 6.96182 40.0664C6.71423 40.0664 6.47244 40.1667 6.2991 40.3411C6.12379 40.5155 6.02441 40.7573 6.02441 41.0038C6.02441 41.2504 6.12379 41.4922 6.2991 41.6665C6.47338 41.8409 6.71432 41.9412 6.96182 41.9412C7.20838 41.9412 7.45016 41.8409 7.62444 41.6665C7.79882 41.4922 7.89922 41.2504 7.89922 41.0038C7.89922 40.7573 7.79891 40.5164 7.62444 40.3411Z" fill="#FF3F3A"/>
</g>
<defs>
<clipPath id="clip0_38927_256">
<rect width="48" height="48" fill="white"/>
</clipPath>
</defs>
</svg>
