<svg width="20" height="20" viewBox="0 0 20 20" fill="none" xmlns="http://www.w3.org/2000/svg">
<path d="M18.329 18.3337L18.3332 18.333V12.2205C18.3332 9.23019 17.6894 6.92671 14.1936 6.92671C12.513 6.92671 11.3853 7.84894 10.9248 8.72324H10.8762V7.20588H7.56163V18.333H11.013V12.8232C11.013 11.3726 11.288 9.96977 13.0846 9.96977C14.8547 9.96977 14.8811 11.6253 14.8811 12.9163V18.3337H18.329Z" fill="#787A80"/>
<path d="M1.9415 7.20657H5.39706V18.3337H1.9415V7.20657Z" fill="#787A80"/>
<path d="M3.66789 1.66699C2.56303 1.66699 1.6665 2.56352 1.6665 3.66838C1.6665 4.77324 2.56303 5.68852 3.66789 5.68852C4.77275 5.68852 5.66928 4.77324 5.66928 3.66838C5.66859 2.56352 4.77206 1.66699 3.66789 1.66699Z" fill="#787A80"/>
</svg>
